<?xml version="1.0" encoding="utf-8"?>
<!-- Generator: Adobe Illustrator 25.0.0, SVG Export Plug-In . SVG Version: 6.00 Build 0)  -->
<svg version="1.1" id="Layer_1" xmlns="http://www.w3.org/2000/svg" xmlns:xlink="http://www.w3.org/1999/xlink" x="0px" y="0px"
	 viewBox="0 0 471.9 137.9" style="enable-background:new 0 0 471.9 137.9;" xml:space="preserve">
<style type="text/css">
	.st0{fill:#231F20;}
	.st1{fill:#FDC428;}
</style>
<g id="Layer_2_1_">
	<g id="Layer_1-2">
		<path class="st0" d="M0,8.1h19.3v102.2H0V8.1z"/>
		<path class="st0" d="M39.1,34.7h19v7.7c3.5-3.1,7.4-5.7,11.7-7.6c3.4-1.4,7-2.1,10.7-2.1c7.2-0.1,14.1,2.7,19.1,7.8
			c4.4,4.5,6.6,11,6.6,19.7v49.9H87.4V77.2c0-9-0.4-15-1.2-18c-0.6-2.7-2.1-5-4.2-6.8c-2.1-1.6-4.8-2.4-7.4-2.3
			c-3.7,0-7.2,1.4-9.9,3.9c-2.9,2.9-4.9,6.6-5.7,10.6C58.3,67,58,72.1,58,80v30.3h-19V34.7z"/>
		<path class="st0" d="M211.4,3.6c3.2,0,6.4,1.3,8.6,3.6c2.3,2.3,3.6,5.5,3.6,8.8c0,3.3-1.2,6.4-3.6,8.6c-2.2,2.3-5.3,3.6-8.4,3.6
			c-3.3,0.1-6.4-1.3-8.6-3.6c-2.3-2.3-3.6-5.5-3.6-8.9c0-3.2,1.2-6.3,3.5-8.5C205.1,4.8,208.2,3.5,211.4,3.6z M201.9,34.7h19v75.6
			h-19V34.7z"/>
		<path class="st0" d="M238.1,34.7h19v7.7c3.5-3.1,7.4-5.7,11.7-7.6c3.4-1.4,7-2.1,10.7-2.1c7.2-0.1,14.1,2.7,19.1,7.8
			c4.4,4.5,6.6,11,6.6,19.7v49.9h-18.8V77.2c0-9-0.4-15-1.2-18c-0.6-2.7-2.1-5-4.2-6.8c-2.1-1.6-4.8-2.4-7.4-2.3
			c-3.7,0-7.2,1.4-9.9,3.9c-2.9,2.9-4.9,6.6-5.7,10.6c-0.6,2.4-0.8,7.5-0.8,15.3v30.3h-19L238.1,34.7z"/>
		<path class="st0" d="M330.9,3.6c3.2,0,6.3,1.3,8.5,3.6c2.3,2.3,3.6,5.5,3.6,8.8c0.1,3.2-1.2,6.4-3.5,8.6c-2.2,2.3-5.3,3.6-8.5,3.6
			c-3.3,0.1-6.4-1.3-8.6-3.6c-2.3-2.3-3.6-5.5-3.6-8.9c0-3.2,1.2-6.3,3.5-8.5C324.6,4.8,327.7,3.5,330.9,3.6z M321.4,34.7h19v75.6
			h-19V34.7z"/>
		<path class="st0" d="M359.9,6.8h19v27.9h11.2V51h-11.3v59.2h-19V51h-9.7V34.7h9.7L359.9,6.8z"/>
		<path class="st0" d="M391.8,34.7h19.4l19.6,47.4l21.7-47.4h19.4l-47.3,103.2H405l15.5-33.3L391.8,34.7z"/>
		<g>
			<path class="st1" d="M169.5,110.4c-9.7-2.3-15.2-10.2-24.4-22.9c-2.8-3.8-6.4-11.8-7.7-15.4c-2.4-7.3-4.3-13-2.3-20.4
				c1.1-4.2,2.6-10.9,18.6-12.3c12.8,0,17.3,0,32-2c-1.1,2.3-2.9,3.7-5.5,5.3c-19.9,6.3-32-0.7-40.3,10c-2.1,8.3,0.7,17,4.4,24
				c1.9,3.5,4.1,6.7,6.5,9.8c3.4,4.1,7.3,7.7,11.7,10.7c3.5,2.4,6.5,2.6,5.9-0.6c1.5,1.2,4,6.1,4.7,7.1
				C174.1,105.3,173.8,110.4,169.5,110.4"/>
			<path class="st1" d="M153.8,4.5c9.3,0,21.1,3.4,30.2,9.1c11,7,18,17.4,11.3,22.5c-6.2,2.7-11.1,5.5-15,6.5
				c19.9-10.1-12.3-41.3-49.2-26.3c-2,0.9-8.3,6.3-8.2,14.1c0.3,4.4,1.8,8.6,4.4,12.1c4.1,5.7,9,10.8,14.4,15.2
				c3.8,2.9,10.1,9.4,14.3,13.6c3.8,3.8,6.2,6.5,8.5,10.8c2,3.7,3,8,4.5,12c1.2,3.4,2.6,6.8,4.2,10c-1.5-2.6-3.1-5.1-4.9-7.5
				c-3-3.7-6.4-6.6-9.7-10.1c-7.3-7.7-15.1-15.2-22.5-21.6c-15.9-13.9-29.3-25-28.3-38.8C111.3,6.9,133.2,3.7,153.8,4.5"/>
		</g>
	</g>
</g>
</svg>
