<svg xmlns="http://www.w3.org/2000/svg" viewBox="0 0 456 131.93"><defs><style>.cls-1{fill:#fff;}.cls-2{fill:#fdc428;}</style></defs><g id="Layer_2" data-name="Layer 2"><g id="Layer_1-2" data-name="Layer 1"><path class="cls-1" d="M0,6.52H18.65v98.71H0Z"/><path class="cls-1" d="M37.78,32.22H56.1V39.7a44,44,0,0,1,11.29-7.31,27.24,27.24,0,0,1,10.35-2.05,25.08,25.08,0,0,1,18.43,7.58q6.36,6.45,6.36,19.06v48.25H84.42v-32q0-13.06-1.18-17.35a11.91,11.91,0,0,0-4.08-6.54A11.41,11.41,0,0,0,72,47.12a13.5,13.5,0,0,0-9.54,3.72A19.92,19.92,0,0,0,56.9,61.12q-.8,3.42-.8,14.82v29.29H37.78Z"/><path class="cls-1" d="M204.29,2.16a11.19,11.19,0,0,1,8.27,3.49A11.55,11.55,0,0,1,216,14.1a11.45,11.45,0,0,1-3.41,8.36,11.06,11.06,0,0,1-8.16,3.45,11.22,11.22,0,0,1-8.33-3.52,11.78,11.78,0,0,1-3.45-8.56,11.27,11.27,0,0,1,3.41-8.25A11.21,11.21,0,0,1,204.29,2.16Zm-9.15,30.06h18.31v73H195.14Z"/><path class="cls-1" d="M230.1,32.22h18.31V39.7a44.19,44.19,0,0,1,11.29-7.31,27.33,27.33,0,0,1,10.36-2.05,25,25,0,0,1,18.42,7.58q6.38,6.45,6.37,19.06v48.25H276.73v-32q0-13.06-1.17-17.35a11.91,11.91,0,0,0-4.08-6.54,11.43,11.43,0,0,0-7.2-2.24,13.5,13.5,0,0,0-9.54,3.72,19.85,19.85,0,0,0-5.52,10.28q-.81,3.42-.81,14.82v29.29H230.1Z"/><path class="cls-1" d="M319.71,2.16A11.17,11.17,0,0,1,328,5.65a11.56,11.56,0,0,1,3.45,8.45A11.49,11.49,0,0,1,328,22.46a11.09,11.09,0,0,1-8.16,3.45,11.24,11.24,0,0,1-8.34-3.52,11.81,11.81,0,0,1-3.44-8.56,11.27,11.27,0,0,1,3.41-8.25A11.21,11.21,0,0,1,319.71,2.16Zm-9.16,30.06h18.32v73H310.55Z"/><path class="cls-1" d="M347.73,5.31h18.32V32.22h10.87V48H366.05v57.24H347.73V48h-9.4V32.22h9.4Z"/><path class="cls-1" d="M378.61,32.22h18.72L416.3,78l20.92-45.81H456l-45.73,99.71H391.35l15-32.15Z"/><path class="cls-2" d="M160.94,106c-9.69-2.3-15.17-10.23-24.36-22.87-2.75-3.77-6.39-11.81-7.72-15.38-2.44-7.3-4.34-13-2.31-20.44,1.15-4.18,2.57-10.86,18.56-12.35,12.79,0,17.32,0,32-2-1.06,2.3-2.85,3.69-5.45,5.35-19.86,6.31-32-.72-40.32,10-2.14,8.26.69,17,4.44,24a69.9,69.9,0,0,0,6.51,9.83A58.67,58.67,0,0,0,154,92.88c3.47,2.43,6.54,2.61,5.89-.61,1.47,1.2,4,6.13,4.67,7.11,1,1.52.68,6.67-3.6,6.6"/><path class="cls-2" d="M145.24.11c9.33,0,21.11,3.36,30.21,9.15,11,7,18,17.37,11.26,22.54-6.21,2.74-11.12,5.5-15,6.53C191.6,28.19,159.39-3,122.56,12c-2,.91-8.3,6.3-8.17,14.07a23.25,23.25,0,0,0,4.44,12.1A81.33,81.33,0,0,0,133.24,53.4C137,56.3,143.39,62.83,147.58,67c3.81,3.78,6.16,6.46,8.51,10.81,2,3.69,3,8,4.49,12a91,91,0,0,0,4.23,10,72.83,72.83,0,0,0-4.95-7.48c-3-3.65-6.42-6.64-9.66-10.08-7.3-7.68-15.12-15.18-22.48-21.55C111.8,46.79,98.39,35.74,99.45,21.86,102.7,2.53,124.65-.69,145.24.11"/></g></g></svg>